<svg id="Capa_1" data-name="Capa 1" xmlns="http://www.w3.org/2000/svg" viewBox="0 0 1080 1080"><defs><style>.cls-1{fill:#fff;}</style></defs><title>Pasos_hazpanencasa</title><path class="cls-1" d="M1024.07,669.84a498.44,498.44,0,0,0-.06-259.3L540,540.18Z"/><path class="cls-1" d="M1024,410.54a498.58,498.58,0,0,0-129.64-224.6L540,540.18Z"/><path class="cls-1" d="M540,540.18l-129.71,483.9a499,499,0,0,0,259.4-.06L540,540.18Z"/><path class="cls-1" d="M540,540.18,56,669.82a498.58,498.58,0,0,0,129.64,224.6L540,540.18Z"/><path class="cls-1" d="M185.63,894.42a503.6,503.6,0,0,0,224.66,129.66L540,540.18Z"/><path class="cls-1" d="M1024.07,669.84,540,540.18h0L894.37,894.42A503.23,503.23,0,0,0,1024.07,669.84Z"/><path class="cls-1" d="M540,540.18,669.69,1024a498.93,498.93,0,0,0,224.68-129.6L540,540.18Z"/><path d="M540,540.18,55.93,410.52A498.44,498.44,0,0,0,56,669.82L540,540.18Z"/><path class="cls-1" d="M410.31,56.34a498.93,498.93,0,0,0-224.68,129.6L540,540.18Z"/><path class="cls-1" d="M669.71,56.28a499,499,0,0,0-259.4.06L540,540.18Z"/><path class="cls-1" d="M540,540.18,185.63,185.94A503.17,503.17,0,0,0,55.93,410.52L540,540.18Z"/><path class="cls-1" d="M540,540.18h0L894.37,185.94A503.6,503.6,0,0,0,669.71,56.28L540,540.18Z"/><path d="M540,48.55A491.74,491.74,0,0,1,731.43,993.18a491.79,491.79,0,0,1-382.86-906A488.9,488.9,0,0,1,540,48.55M540,30C258.14,30,29.64,258.42,29.64,540.18S258.14,1050.36,540,1050.36s510.36-228.42,510.36-510.18S821.86,30,540,30Z"/><path d="M547.27,171.82V95.09a2.45,2.45,0,0,0-.71-1.72,2.06,2.06,0,0,0-1.71-.7l-9.7,0a2.42,2.42,0,0,0-2.42,2.42v76.7a17,17,0,0,0,3.66,31.89,17.3,17.3,0,0,0,3.59.38,17,17,0,0,0,7.29-32.27Zm4.16,19.34a12.07,12.07,0,0,1-3.8,5.37h0A12.1,12.1,0,1,1,536,175.73a2.44,2.44,0,0,0,1.63-2.28V97.53l4.84,0v75.94a2.44,2.44,0,0,0,1.63,2.29A12.09,12.09,0,0,1,551.43,191.16Z"/><path d="M566.54,170.16a31.49,31.49,0,0,0-9.58-9.58V146h7.27a2.43,2.43,0,0,0,0-4.85H557v-4.84h7.27a2.43,2.43,0,0,0,0-4.85H557v-4.84h7.27a2.43,2.43,0,0,0,0-4.85H557v-4.84h7.27a2.43,2.43,0,0,0,0-4.85H557V107.2h7.27a2.42,2.42,0,0,0,0-4.84H557V90.24a17,17,0,0,0-33.92,0v70.34a31.49,31.49,0,1,0,43.5,9.58ZM540,213.78A26.64,26.64,0,0,1,526.67,164a2.41,2.41,0,0,0,1.21-2.1V90.24a12.12,12.12,0,0,1,24.24,0v71.7a2.41,2.41,0,0,0,1.21,2.1A26.65,26.65,0,0,1,540,213.78Z"/><g id="outline"><path d="M798.25,142.86h-136a2.34,2.34,0,0,0-2.34,2.34,25.83,25.83,0,0,0,25.8,25.8h30.49v9.37h-4.69a2.35,2.35,0,0,0-2.35,2.35v11.72H698.75a11.73,11.73,0,0,0-11.66,10.43l-7.3,65.66a11.73,11.73,0,0,0,10.36,12.94,11.33,11.33,0,0,0,1.3.07H769a11.72,11.72,0,0,0,11.73-11.72,11.15,11.15,0,0,0-.07-1.29l-7.3-65.66a11.73,11.73,0,0,0-11.66-10.43H751.34V182.72a2.35,2.35,0,0,0-2.35-2.35H744.3V171h30.49a25.83,25.83,0,0,0,25.8-25.8A2.34,2.34,0,0,0,798.25,142.86ZM761.7,199.13a7,7,0,0,1,7,6.26L776,271a7.06,7.06,0,0,1-1.75,5.47,7,7,0,0,1-5.24,2.34H691.45a7,7,0,0,1-7-7.81l7.29-65.65a7,7,0,0,1,7-6.26Zm-15.06-14.07v9.38H742v-4.69h-4.69v4.69h-4.69v-4.69h-4.69v4.69h-4.69v-4.69H718.5v4.69h-4.69v-9.38Zm-25.8-4.69V171h18.77v9.37Zm53.95-14.06H685.66a21.15,21.15,0,0,1-21-18.76H795.77A21.15,21.15,0,0,1,774.79,166.31Z"/><path d="M702.08,239a28.15,28.15,0,1,0,28.14-28.13A28.14,28.14,0,0,0,702.08,239Zm28.14-2.34a2.35,2.35,0,1,1-2.34,2.34A2.35,2.35,0,0,1,730.22,236.65Zm-2.34-21v16.72a7,7,0,1,0,4.69,0V215.67a23.45,23.45,0,1,1-4.69,0Z"/><rect x="678.62" y="156.93" width="28.15" height="4.69"/></g><g id="outline-2" data-name="outline"><path d="M363.65,225.44a2.45,2.45,0,0,0-4.9,0c0,1.53-.58,2.19-1.54,3.28a9.08,9.08,0,0,0,0,13c1,1.09,1.54,1.75,1.54,3.28a2.45,2.45,0,1,0,4.9,0,9.07,9.07,0,0,0-2.75-6.5c-1-1.1-1.54-1.76-1.54-3.29s.58-2.19,1.54-3.28A9.1,9.1,0,0,0,363.65,225.44Z"/><path d="M378.34,225.44a2.45,2.45,0,0,0-4.9,0c0,1.53-.58,2.19-1.54,3.28a9.1,9.1,0,0,0,0,13c1,1.09,1.54,1.75,1.54,3.28a2.45,2.45,0,0,0,4.9,0,9.07,9.07,0,0,0-2.75-6.5c-1-1.1-1.54-1.76-1.54-3.29s.58-2.19,1.54-3.28A9.1,9.1,0,0,0,378.34,225.44Z"/><path d="M349,225.44a2.45,2.45,0,1,0-4.89,0c0,1.53-.58,2.19-1.54,3.28a9.08,9.08,0,0,0,0,13c1,1.09,1.54,1.75,1.54,3.28a2.45,2.45,0,1,0,4.89,0,9.07,9.07,0,0,0-2.74-6.5c-1-1.1-1.54-1.76-1.54-3.29s.58-2.19,1.54-3.28A9.1,9.1,0,0,0,349,225.44Z"/><path d="M415.37,178.93H302.73a2.45,2.45,0,0,0-2.44,2.45V269.5a2.45,2.45,0,0,0,2.44,2.45H415.37a2.45,2.45,0,0,0,2.45-2.45V181.38A2.45,2.45,0,0,0,415.37,178.93Zm-2.44,88.12H305.18V183.83H412.93Z"/><path d="M419.05,139.77h-120a13.48,13.48,0,0,0-13.47,13.46V273.17a13.49,13.49,0,0,0,13.47,13.47h120a13.49,13.49,0,0,0,13.47-13.47V153.23A13.48,13.48,0,0,0,419.05,139.77ZM290.49,153.23a8.59,8.59,0,0,1,8.57-8.57h120a8.59,8.59,0,0,1,8.57,8.57v11H290.49ZM419.05,281.74h-120a8.59,8.59,0,0,1-8.57-8.57v-104H427.62v104A8.59,8.59,0,0,1,419.05,281.74Z"/><path d="M376.2,147.11H341.91a2.45,2.45,0,0,0-2.45,2.45v9.79a2.45,2.45,0,0,0,2.45,2.45H376.2a2.45,2.45,0,0,0,2.44-2.45v-9.79A2.45,2.45,0,0,0,376.2,147.11Zm-2.45,9.79H344.36V152h29.39Z"/><path d="M317.43,213.2h83.25a7.34,7.34,0,0,0,2.45-14.27v-7.76a2.45,2.45,0,0,0-2.45-2.45h-9.79a2.45,2.45,0,0,0-2.45,2.45v7.34H329.67v-7.34a2.45,2.45,0,0,0-2.45-2.45h-9.79a2.45,2.45,0,0,0-2.45,2.45v7.76a7.34,7.34,0,0,0,2.45,14.27Zm75.91-19.58h4.89v4.89h-4.89Zm-73.46,0h4.89v4.89h-4.89Zm-2.45,9.79h83.25a2.45,2.45,0,0,1,0,4.9H317.43a2.45,2.45,0,0,1,0-4.9Z"/><path d="M327.22,147.11a7.35,7.35,0,1,0,7.35,7.34A7.34,7.34,0,0,0,327.22,147.11Zm0,9.79a2.45,2.45,0,1,1,2.45-2.45A2.45,2.45,0,0,1,327.22,156.9Z"/><path d="M307.63,147.11a7.35,7.35,0,1,0,7.35,7.34A7.34,7.34,0,0,0,307.63,147.11Zm0,9.79a2.45,2.45,0,1,1,2.45-2.45A2.45,2.45,0,0,1,307.63,156.9Z"/><path d="M410.48,147.11a7.35,7.35,0,1,0,7.34,7.34A7.35,7.35,0,0,0,410.48,147.11Zm0,9.79a2.45,2.45,0,1,1,2.45-2.45A2.45,2.45,0,0,1,410.48,156.9Z"/><path d="M390.89,147.11a7.35,7.35,0,1,0,7.34,7.34A7.35,7.35,0,0,0,390.89,147.11Zm0,9.79a2.45,2.45,0,1,1,2.45-2.45A2.45,2.45,0,0,1,390.89,156.9Z"/><path d="M381.09,257.26H337a2.45,2.45,0,1,0,0,4.9h44.07a2.45,2.45,0,1,0,0-4.9Z"/><path d="M393.34,257.26h-2.45a2.45,2.45,0,1,0,0,4.9h2.45a2.45,2.45,0,0,0,0-4.9Z"/></g><path d="M393.45,891.71a56.44,56.44,0,0,0-43.89-49.47v-7.1a9.51,9.51,0,0,0-2.3-18.73H327.13a9.5,9.5,0,0,0-2.29,18.73v7.12A56.17,56.17,0,0,0,297.3,857.4a57.07,57.07,0,0,0-4.75,5.39H272.41a2.8,2.8,0,0,0,0,5.59h16.34a56.09,56.09,0,0,0-5,10.74H253.35a2.8,2.8,0,1,0,0,5.59H282.2a57.43,57.43,0,0,0-1.38,10.75H268.45a2.8,2.8,0,1,0,0,5.59h12.46a55.94,55.94,0,0,0,1.74,10.74H264.54a2.8,2.8,0,1,0,0,5.59h19.9a56.44,56.44,0,0,0,47.22,36.15c1.84.18,3.69.27,5.54.27a56.62,56.62,0,0,0,30.82-9.1,2.8,2.8,0,1,0-3-4.69,50.86,50.86,0,1,1,15-15,2.79,2.79,0,1,0,4.69,3A56.66,56.66,0,0,0,393.45,891.71Zm-70.23-65.79a3.92,3.92,0,0,1,3.91-3.92h20.13a3.92,3.92,0,1,1,0,7.83H327.13A3.92,3.92,0,0,1,323.22,825.92Zm7.21,15.38v-5.88H344v5.87A57.31,57.31,0,0,0,330.43,841.3Z"/><path d="M375.21,932.48a2.8,2.8,0,1,0,2,.82A2.82,2.82,0,0,0,375.21,932.48Z"/><path d="M337.24,854a43.36,43.36,0,1,0,43.38,43.36A43.42,43.42,0,0,0,337.24,854Zm0,81.13A37.77,37.77,0,1,1,375,897.33,37.82,37.82,0,0,1,337.24,935.1Z"/><path d="M367.14,894.57h-2.59a2.8,2.8,0,1,0,0,5.59h2.59a2.8,2.8,0,0,0,0-5.59Z"/><path d="M309.93,894.5h-2.59a2.8,2.8,0,0,0,0,5.59h2.59a2.8,2.8,0,1,0,0-5.59Z"/><path d="M337.27,872.83a2.8,2.8,0,0,0,2.8-2.8v-2.59a2.8,2.8,0,0,0-5.59,0V870A2.79,2.79,0,0,0,337.27,872.83Z"/><path d="M337.21,921.83a2.8,2.8,0,0,0-2.8,2.8v2.59a2.8,2.8,0,0,0,5.59,0v-2.59A2.79,2.79,0,0,0,337.21,921.83Z"/><path d="M253.35,911.78a2.8,2.8,0,1,0,2,.82A2.82,2.82,0,0,0,253.35,911.78Z"/><path d="M334.37,899.61a27.89,27.89,0,0,0,4.18-4.57,7.72,7.72,0,0,0,1.69-4.48,3.1,3.1,0,0,0-.58-2,2.07,2.07,0,0,0-1.71-.72,2.05,2.05,0,0,0-1.81,1,5.07,5.07,0,0,0-.6,2.88H327.9a11.87,11.87,0,0,1,1.57-5.93,8.79,8.79,0,0,1,3.78-3.46,11.88,11.88,0,0,1,5.18-1.1c3.3,0,5.75.81,7.36,2.45A8.65,8.65,0,0,1,348.2,890a12.69,12.69,0,0,1-2.79,7.84,30.46,30.46,0,0,1-7,6.55h10.06v6.39H328v-5.91Q331.88,901.81,334.37,899.61Z"/><path d="M687,877.81a20.29,20.29,0,0,0-13.66,17c-.37,3,4.27,2.93,4.64,0a15.45,15.45,0,0,1,10.25-12.49C691,881.31,689.83,876.83,687,877.81Z"/><path d="M819.63,878.27l-.71-.8c-4.63-5.23-6.11-10.09-7.83-15.72a60.22,60.22,0,0,0-5.37-13.34c-5.64-9.77-17.58-13.66-33.6-11-19,3.19-42.85,15.84-55.35,29.87a20.24,20.24,0,0,0-5.59-3.79c-4.59-2.06-10.19-2.46-16.66-1.19-11.34,2.24-25.66,12.45-30,25.68-2.7,8.25-.94,16.08,5.1,22.66,3.71,4,9.34,6.13,16.44,6.13a40.44,40.44,0,0,0,4.31-.24,52.12,52.12,0,0,0,8.43-1.66,21.3,21.3,0,0,0,11.86,14.21c6.2,3,11.78,4.49,16.87,4.49a23.74,23.74,0,0,0,6.51-.88c5.62-1.57,10.76-5.33,15.73-11.48l.66-.86a142.28,142.28,0,0,0,25,2.34c.77,0,1.52,0,2.23,0,13.18-.3,32-1.87,43.51-12.09C836.35,897.12,827.47,887.11,819.63,878.27Zm-121.5,30.37a44.83,44.83,0,0,1-8.42,1.77c-7,.75-12.53-.64-15.53-3.92-4.5-4.9-5.77-10.47-3.78-16.56,3.47-10.58,15.89-19.67,25.32-21.53a30,30,0,0,1,5.81-.62,17.18,17.18,0,0,1,7.11,1.38,14.48,14.48,0,0,1,4.3,3,18,18,0,0,1,2.08,2.47,22.38,22.38,0,0,1,1.76,3c.24.49.47,1,.68,1.52-.64.29-1.28.61-1.9.95a31.39,31.39,0,0,0-4,2.59l-.47.35a33.47,33.47,0,0,0-3,2.72C702.07,892,698.29,900.65,698.13,908.64Zm53-3a23.5,23.5,0,0,1-3.38,7.87c-.56.89-1.19,1.8-1.9,2.72-.27.36-.55.73-.84,1.09-.45.55-.89,1.07-1.33,1.57-3.69,4.18-7.39,6.76-11.26,7.85-5.26,1.47-11.48.42-19-3.23-4.77-2.31-7.67-5.89-8.66-10.64-.12-.54-.22-1.08-.29-1.65s-.09-1-.1-1.56a21.3,21.3,0,0,1,.21-3.45,29.09,29.09,0,0,1,4.54-11.74,29.84,29.84,0,0,1,2.41-3.18,27,27,0,0,1,2.79-2.77l.69-.59a24.61,24.61,0,0,1,7.15-4,26.62,26.62,0,0,1,3-.87,22.91,22.91,0,0,1,14.78,1.39C747.79,888.24,752.72,897.54,751.08,905.67Zm66,.32c-10,8.86-27.34,10.25-39.54,10.53a131.83,131.83,0,0,1-23.38-1.74,28,28,0,0,0,3-7.89c2.22-11-4.08-23-14.65-28a29.31,29.31,0,0,0-19.18-1.7,30.5,30.5,0,0,0-2.55-5c10.74-12.47,33.18-25.41,52.38-28.63a51,51,0,0,1,8.54-.77c7.35,0,14.78,2,18.68,8.74a54,54,0,0,1,4.81,12c1.77,5.79,3.6,11.78,9.12,18l.71.81C823.53,892,827.17,897,817.07,906Z"/><path d="M715.07,891.44c-.13.12-.25.26-.37.38a20.28,20.28,0,0,0-4.29,6.17,20.83,20.83,0,0,0-1.71,6.12A21.29,21.29,0,0,0,709,911a20.94,20.94,0,0,0,2.35,6.11c1.5,2.58,5.51.25,4-2.34a16.15,16.15,0,0,1-2.08-6.15,15.63,15.63,0,0,1,0-3.68,15.85,15.85,0,0,1,.32-1.95,15.59,15.59,0,0,1,1-2.93c.08-.18.16-.36.25-.54a16.79,16.79,0,0,1,1.83-2.9,17.22,17.22,0,0,1,1.69-1.85C720.53,892.67,717.24,889.39,715.07,891.44Z"/><path d="M783.85,875.74c-6.71,2.86-13.06-7.4-18.28-10.09-3.85-2-7.85-2.36-11.52.13-2.45,1.67-.14,5.69,2.34,4,6.58-4.47,13.17,5.7,18.17,8.79,3.85,2.37,7.47,2.94,11.63,1.16C788.93,878.57,786.57,874.58,783.85,875.74Z"/><path d="M284.18,351.06a2.63,2.63,0,0,0-3.4,4c5.69,4.82,8.7,10.22,8.71,15.61a12.64,12.64,0,0,1-4,9.34c-4.47,4.47-12.79,7.8-24.73,9.9-10.72,1.89-24.14,2.8-41.05,2.77-26.1,0-44.52-2.3-56-6.89,4.44-3.16,9.19-6.94,14.28-11.39a9.36,9.36,0,0,0,16.5-5.15,56.24,56.24,0,0,0,0-10.38q6.92-6.9,12.51-13.06a35.37,35.37,0,0,1,4.79,21.64,9.48,9.48,0,0,0,8.44,10.32,9.36,9.36,0,0,0,10.23-8.47,55.21,55.21,0,0,0-.73-15.73A54.36,54.36,0,0,0,224.12,338a143.08,143.08,0,0,1,14.75,1.22,37.84,37.84,0,0,1,8,18,35.68,35.68,0,0,1,0,10.32,9.38,9.38,0,1,0,18.57,2.69,55,55,0,0,0,0-15.75,53.9,53.9,0,0,0-2.21-9.21,76.84,76.84,0,0,1,7.45,3.3,2.63,2.63,0,0,0,2.38-4.69c-14.44-7.34-34.41-11.39-54.93-11.2q2.13-2.75,4-5.36c7.69-11,11.44-20,11.44-27.5a18,18,0,0,0-5.36-13.14c-7.43-7.4-20-8.57-35.42-3.28-14.78,5.07-30.62,15.54-44.6,29.47-20.25,20.18-32.82,43.89-32.82,61.86,0,7.45,2.26,13.65,6.56,17.93a17.86,17.86,0,0,0,13.1,5.33c5.47,0,11.82-2,19-6,1.47-.81,3-1.72,4.54-2.7,12,5.79,32,8.63,61.18,8.67,16.67,0,31.19-.95,42-2.84,13.21-2.32,22.21-6,27.54-11.36a17.89,17.89,0,0,0,5.5-13.07c0-7-3.66-13.76-10.56-19.61ZM256.78,343a48.82,48.82,0,0,1,3.5,26.44,4.1,4.1,0,0,1-4.65,3.52,4.2,4.2,0,0,1-3.51-4.75,41,41,0,0,0-6-27.84c3.69.73,7.25,1.6,10.65,2.63Zm-67.53,25.75a4.12,4.12,0,0,1-4.09,3.76,4.06,4.06,0,0,1-3.25-1.61q3.66-3.33,7.57-7.09c0,1.64-.07,3.29-.23,4.94Zm35.34-14.19a49.9,49.9,0,0,1,.66,14.24,4.12,4.12,0,0,1-4.49,3.74A4.2,4.2,0,0,1,217,368a40.68,40.68,0,0,0-6.37-26.24c1.1-1.27,2.16-2.51,3.18-3.74,1.38-.05,2.77-.09,4.16-.1a49.71,49.71,0,0,1,6.58,16.69ZM181.8,293.92a48.82,48.82,0,0,1,11.07,6.16A49.79,49.79,0,0,1,203,310.13a4.1,4.1,0,0,1-.48,5.53,4.22,4.22,0,0,1-6.16-.62,41.14,41.14,0,0,0-8.37-8.35,41.87,41.87,0,0,0-15.54-7.11c3.12-2.09,6.26-4,9.39-5.66Zm-51.57,50.63a49,49,0,0,1,11.48,5.71,50,50,0,0,1,10.54,9.6,4.1,4.1,0,0,1-.23,5.54,4.21,4.21,0,0,1-6.18-.34,41.38,41.38,0,0,0-8.73-8A40.84,40.84,0,0,0,126.42,352c1.12-2.45,2.4-4.94,3.81-7.44Zm21.23,42.82c-11.84,6.56-20.29,7.05-25.84,1.52-3.33-3.32-5-8.1-5-14.21a51,51,0,0,1,3.77-17.82,35.93,35.93,0,0,1,9.8,4.59,36.31,36.31,0,0,1,7.62,6.95,9.48,9.48,0,0,0,13.94.72,9.34,9.34,0,0,0,.57-12.61,55.24,55.24,0,0,0-11.65-10.6A54.51,54.51,0,0,0,133,340c2.15-3.4,4.55-6.82,7.18-10.19A38.69,38.69,0,0,1,159.66,336a36.07,36.07,0,0,1,7.62,6.95,9.48,9.48,0,0,0,13.26,1.34,9.37,9.37,0,0,0,1.25-13.23,55.27,55.27,0,0,0-6.87-7,2.62,2.62,0,1,0-3.4,4,50.9,50.9,0,0,1,6.22,6.32,4.11,4.11,0,0,1-.53,5.82,4.19,4.19,0,0,1-5.87-.62,41.43,41.43,0,0,0-8.74-8,43,43,0,0,0-18.43-6.81q3.12-3.64,6.58-7.18a51.14,51.14,0,0,1,11.08,4,2.63,2.63,0,1,0,2.36-4.69,55.16,55.16,0,0,0-9.08-3.59,141.72,141.72,0,0,1,11.3-9.56,37.87,37.87,0,0,1,18.41,7.05,35.72,35.72,0,0,1,7.3,7.28,9.49,9.49,0,0,0,13.9,1.35A9.32,9.32,0,0,0,207.16,307,55.16,55.16,0,0,0,196,295.86a53.61,53.61,0,0,0-8.08-4.95c2.21-1,4.39-1.85,6.56-2.59a49.32,49.32,0,0,1,15.76-3c6,0,10.89,1.69,14.24,5a12.65,12.65,0,0,1,3.81,9.42c0,6.32-3.53,14.56-10.49,24.48a133,133,0,0,1-12.34,15.43c-15.65,16.29-34.62,37-54,47.69Z"/><path d="M933.21,323.38H907.33l30.07-30.07a8.46,8.46,0,0,0,2.51-6,8.56,8.56,0,0,0-14.6-6l-42.17,42.16h-75a6.7,6.7,0,0,0,0,13.4h2.23v6.7a47,47,0,0,0,28.12,42.94,11.14,11.14,0,0,0-8,10.65v2.24h80.42v-2.24a11.14,11.14,0,0,0-8-10.65A46.94,46.94,0,0,0,931,343.48v-6.7h2.24a6.7,6.7,0,0,0,0-13.4Zm-4.74-39a4.08,4.08,0,1,1,5.77,5.78L901,323.38H889.46Zm-58.74,52.4-2.53,2.54a6.39,6.39,0,0,1-4.68,2,23.59,23.59,0,0,0-15.13,5.19,46.8,46.8,0,0,0-8-.76c-11.32,0-19.52,2.26-23.69,6.35a41.83,41.83,0,0,1-.88-8.58v-6.7Zm3.14,19.5c.22,4.93-2.1,10.33-6.22,14.45-6.91,6.91-16.74,8.31-21.92,3.13-2.43-2.43-3.5-6-3-10A20.8,20.8,0,0,1,847.86,352c4.13-4.11,9.55-6.46,14.46-6.21a10.83,10.83,0,0,0,8-3.27l5.7-5.69h11.56l-11.48,11.47A10.74,10.74,0,0,0,872.87,356.28Zm-35.56,7a19.12,19.12,0,0,0,0,4.72c-7.67-.22-13.69-1.61-17.16-4a41.92,41.92,0,0,1-2.85-6.37c1.47-4.54,10-7.45,22.09-7.45,1.26,0,2.55.07,3.86.2A24.72,24.72,0,0,0,837.31,363.28Zm62.39,27.09a6.72,6.72,0,0,1,6.32,4.47H835.3a6.72,6.72,0,0,1,6.32-4.47Zm-15.64-4.46h-26.8a42.36,42.36,0,0,1-32.39-15.07,55.09,55.09,0,0,0,13.62,1.65,14.73,14.73,0,0,0,3.08,4.53,15.64,15.64,0,0,0,11.26,4.4,24.55,24.55,0,0,0,17-7.53,26.16,26.16,0,0,0,6.79-11.6c9-3.94,17.6-7.65,25.33-7.65a79.47,79.47,0,0,1,22.14,2.87A42.48,42.48,0,0,1,884.06,385.91Zm42.45-42.43a42.38,42.38,0,0,1-1.18,9.75,83.58,83.58,0,0,0-23.4-3.05c-7.9,0-16,3.24-24.62,6.93,0-.34,0-.69,0-1a6.29,6.29,0,0,1,2-4.67l14.63-14.63h32.59Zm6.7-11.17H808.11a2.23,2.23,0,0,1,0-4.46h125.1a2.23,2.23,0,1,1,0,4.46Z"/><path d="M861.67,350.18c-3.57,0-7.55,1.84-10.65,4.93a16.54,16.54,0,0,0-4.84,9.28,7.41,7.41,0,0,0,1.71,6.31,6.75,6.75,0,0,0,5,1.81c3.58,0,7.55-1.85,10.65-4.94a16.56,16.56,0,0,0,4.85-9.27,7.46,7.46,0,0,0-1.72-6.32A6.79,6.79,0,0,0,861.67,350.18Zm2.24,7.56a12,12,0,0,1-3.58,6.67c-2.24,2.24-5.11,3.63-7.49,3.63a2.66,2.66,0,0,1-1.79-.49,3.4,3.4,0,0,1-.44-2.61,12,12,0,0,1,3.57-6.67c2.24-2.24,5.11-3.63,7.49-3.63a2.59,2.59,0,0,1,1.79.5A3.41,3.41,0,0,1,863.91,357.74Z"/><path d="M1004.13,546.79a56.44,56.44,0,0,0-43.89-49.47v-7.1A9.5,9.5,0,0,0,958,471.49H937.81a9.51,9.51,0,0,0-2.29,18.73v7.12A56.09,56.09,0,0,0,908,512.48a58.53,58.53,0,0,0-4.75,5.39H883.1a2.8,2.8,0,1,0,0,5.59h16.33a56,56,0,0,0-5,10.74H864a2.8,2.8,0,0,0,0,5.59h28.86a56.62,56.62,0,0,0-1.39,10.75H879.13a2.8,2.8,0,0,0,0,5.59h12.46a57,57,0,0,0,1.74,10.74H875.22a2.8,2.8,0,1,0,0,5.59h19.9A56,56,0,0,0,908,592.33a56.62,56.62,0,0,0,34.36,16.27c1.85.18,3.7.27,5.54.27a56.66,56.66,0,0,0,30.83-9.11,2.79,2.79,0,1,0-3.05-4.68,50.86,50.86,0,1,1,15-15,2.77,2.77,0,0,0,.82,3.86,2.81,2.81,0,0,0,3.87-.82A56.65,56.65,0,0,0,1004.13,546.79ZM933.9,481a3.92,3.92,0,0,1,3.91-3.91H958a3.92,3.92,0,0,1,0,7.83H937.81A3.92,3.92,0,0,1,933.9,481Zm7.21,15.39V490.5h13.54v5.87A56.79,56.79,0,0,0,941.11,496.38Z"/><path d="M985.89,587.56a2.79,2.79,0,0,0-2,4.77,2.78,2.78,0,0,0,2,.82,2.79,2.79,0,0,0,2-4.77A2.85,2.85,0,0,0,985.89,587.56Z"/><path d="M947.92,509a43.37,43.37,0,1,0,43.38,43.37A43.43,43.43,0,0,0,947.92,509Zm0,81.14a37.78,37.78,0,1,1,37.79-37.77A37.82,37.82,0,0,1,947.92,590.18Z"/><path d="M977.82,549.65h-2.59a2.8,2.8,0,1,0,0,5.59h2.59a2.8,2.8,0,1,0,0-5.59Z"/><path d="M920.62,549.58H918a2.8,2.8,0,1,0,0,5.59h2.59a2.8,2.8,0,0,0,0-5.59Z"/><path d="M948,527.9a2.79,2.79,0,0,0,2.79-2.79v-2.59a2.8,2.8,0,1,0-5.59,0v2.59A2.79,2.79,0,0,0,948,527.9Z"/><path d="M947.89,576.91a2.8,2.8,0,0,0-2.8,2.79v2.59a2.8,2.8,0,0,0,5.6,0V579.7A2.8,2.8,0,0,0,947.89,576.91Z"/><path d="M864,566.86a2.8,2.8,0,1,0,2,.82A2.81,2.81,0,0,0,864,566.86Z"/><path d="M941.15,544.27v-7.4h12.39v29.39h-8.25v-22Z"/><path class="cls-1" d="M218.49,546.79a56.44,56.44,0,0,0-43.89-49.47v-7.1a9.51,9.51,0,0,0-2.3-18.73H152.17a9.5,9.5,0,0,0-2.29,18.73v7.12a56.09,56.09,0,0,0-27.54,15.14,57.07,57.07,0,0,0-4.75,5.39H97.45a2.8,2.8,0,0,0,0,5.59h16.34a56.09,56.09,0,0,0-5,10.74H78.39a2.8,2.8,0,1,0,0,5.59h28.85a56.61,56.61,0,0,0-1.38,10.75H93.49a2.8,2.8,0,1,0,0,5.59h12.45a57,57,0,0,0,1.75,10.74H89.58a2.8,2.8,0,1,0,0,5.59h19.9A56.48,56.48,0,0,0,156.7,608.6c1.84.18,3.69.27,5.54.27a56.63,56.63,0,0,0,30.82-9.11,2.79,2.79,0,1,0-3.05-4.68,50.87,50.87,0,1,1,15-15,2.79,2.79,0,0,0,4.69,3A56.66,56.66,0,0,0,218.49,546.79ZM148.26,481a3.91,3.91,0,0,1,3.91-3.91H172.3a3.92,3.92,0,1,1,0,7.83H152.17A3.92,3.92,0,0,1,148.26,481Zm7.21,15.39V490.5H169v5.87A56.79,56.79,0,0,0,155.47,496.38Z"/><path class="cls-1" d="M200.25,587.56a2.79,2.79,0,0,0-2,4.77,2.79,2.79,0,0,0,3.95,0,2.8,2.8,0,0,0-2-4.77Z"/><path class="cls-1" d="M162.28,509a43.37,43.37,0,1,0,43.38,43.37A43.43,43.43,0,0,0,162.28,509Zm0,81.14a37.78,37.78,0,1,1,37.79-37.77A37.83,37.83,0,0,1,162.28,590.18Z"/><path class="cls-1" d="M192.18,549.65h-2.59a2.8,2.8,0,1,0,0,5.59h2.59a2.8,2.8,0,0,0,0-5.59Z"/><path class="cls-1" d="M135,549.58h-2.59a2.8,2.8,0,0,0,0,5.59H135a2.8,2.8,0,1,0,0-5.59Z"/><path class="cls-1" d="M162.31,527.9a2.79,2.79,0,0,0,2.8-2.79v-2.59a2.8,2.8,0,1,0-5.59,0v2.59A2.79,2.79,0,0,0,162.31,527.9Z"/><path class="cls-1" d="M162.25,576.91a2.79,2.79,0,0,0-2.8,2.79v2.59a2.8,2.8,0,1,0,5.59,0V579.7A2.79,2.79,0,0,0,162.25,576.91Z"/><path class="cls-1" d="M78.39,566.86a2.8,2.8,0,1,0,2,.82A2.82,2.82,0,0,0,78.39,566.86Z"/><path class="cls-1" d="M154.87,539.11c1.77-1.62,4.23-2.43,7.4-2.43a12,12,0,0,1,5.28,1.07,7.5,7.5,0,0,1,4.45,7,6.71,6.71,0,0,1-1.33,4.36,6.53,6.53,0,0,1-3,2.19v.16a6.82,6.82,0,0,1,4.87,6.92,8.43,8.43,0,0,1-1.17,4.46,7.89,7.89,0,0,1-3.38,3,11.73,11.73,0,0,1-5.26,1.09,12,12,0,0,1-7.94-2.43q-2.93-2.43-3-7.46h7.68a3.43,3.43,0,0,0,.68,2.49,2.88,2.88,0,0,0,2.3.89,2.32,2.32,0,0,0,1.82-.73,2.7,2.7,0,0,0,.67-1.93,2.62,2.62,0,0,0-1-2.25,5.48,5.48,0,0,0-3.19-.72h-1.41v-6.39h1.37a5.31,5.31,0,0,0,2.59-.5,2.24,2.24,0,0,0,1.07-2.19,2.58,2.58,0,0,0-.61-1.87,2.17,2.17,0,0,0-1.65-.63,1.89,1.89,0,0,0-1.7.83,4.09,4.09,0,0,0-.63,2h-7.68A9.49,9.49,0,0,1,154.87,539.11Z"/><path d="M576.36,937.59c2.95-4.56,7.09-10.79,13.45-9.06,2.89.78,4.12-3.7,1.24-4.48-8.64-2.34-14.51,4.73-18.69,11.2C570.73,937.76,574.75,940.09,576.36,937.59Z"/><path d="M621.58,967.54l.17-.19c5-6.22,8-12.08,9.21-17.9,2.75-13.61-5.07-28.52-18.18-34.69-9.77-4.6-21.75-4.16-31.86.73-3.22-6.69-8-11.77-13.89-14.42-5.68-2.55-12.65-3-20.7-1.45-13.89,2.74-32.19,15.8-37.55,32.12q-.24.76-.45,1.53c-1.24,0-2.5-.08-3.77-.08-33.17,0-58.9,16.57-58.9,30.82,0,13.18,19.82,19.87,58.9,19.87,4.29,0,8.33-.09,12.16-.25a12.78,12.78,0,0,0-.19,2c0,13.18,19.82,19.87,58.91,19.87s58.9-6.69,58.9-19.87C634.34,979.55,629.6,973,621.58,967.54Zm-43.86-42.82a30.73,30.73,0,0,1,2.68-1.88,30.22,30.22,0,0,1,2.76-1.58c8.55-4.32,18.74-4.78,27-.91,10.44,4.91,16.92,17.16,14.76,27.87-1,4.83-3.58,9.82-8,15.24-.24.3-.48.56-.72.85-10.49-5.6-24.76-9.47-40.78-9.47-1,0-1.91,0-2.85,0q-3.17.09-6.21.37c-.85.08-1.68.17-2.51.27a2.74,2.74,0,0,1,0-.28c-.08-.67-.12-1.35-.14-2-.3-10.06,5.2-21.46,13.87-28.37A1.09,1.09,0,0,1,577.72,924.72Zm-63.06,8.94c4.66-14.19,20.69-25.57,32.87-28a39.19,39.19,0,0,1,7.56-.79,22.85,22.85,0,0,1,9.4,1.82c4.67,2.1,8.5,6.3,11.08,11.91-.64.45-1.27.9-1.88,1.39-9.6,7.66-15.85,20.13-16.18,31.58-8.08-8.53-23.74-15.9-42.86-17.87C514.65,933.7,514.66,933.68,514.66,933.66Zm4.62,43.63c-4.56.26-9.48.4-14.72.4-32.52,0-52.72-5.24-52.72-13.68,0-9.69,22.64-24.63,52.72-24.63.92,0,1.84,0,2.74,0,1.06,0,2.09.09,3.12.15s2.05.16,3.06.26c19.37,1.93,34.57,9.84,40.77,17.35a86.59,86.59,0,0,0-10.7,3.16,73,73,0,0,0-8.63,3.83c-1.66.88-3.24,1.8-4.71,2.76A36.51,36.51,0,0,0,519.28,977.29Zm56.16,22.05c-32.52,0-52.72-5.24-52.72-13.68a7.41,7.41,0,0,1,.43-2.39,12.62,12.62,0,0,1,1.7-3.26,23.84,23.84,0,0,1,3-3.41c4-3.78,10.1-7.5,17.76-10.36a80.94,80.94,0,0,1,11.58-3.33s0,0,0,.05l.25-.1,1.79-.36,1-.17,2.12-.34.93-.13c.76-.1,1.53-.2,2.31-.28a90.1,90.1,0,0,1,9.87-.55,83,83,0,0,1,36.3,8c1,.49,2,1,2.89,1.52s1.87,1.1,2.74,1.66c6.81,4.41,10.79,9.39,10.79,13.44C628.16,994.1,608,999.34,575.44,999.34Z"/><path d="M545.93,908.77a31.94,31.94,0,0,0-18.68,15c-1.46,2.6,2.55,4.94,4,2.34a27.09,27.09,0,0,1,15.91-12.86C550,912.38,548.8,907.9,545.93,908.77Z"/><path d="M475.09,947.08a21.44,21.44,0,0,0-15.17,8.48c-1.82,2.36,2.21,4.68,4,2.34a16.32,16.32,0,0,1,11.17-6.19C478,951.41,478.06,946.77,475.09,947.08Z"/><path d="M544.13,970.56a19.72,19.72,0,0,0-8.32,3.38c-2.41,1.72-.1,5.74,2.34,4a16.37,16.37,0,0,1,7.22-2.91,2.35,2.35,0,0,0,1.62-2.86A2.39,2.39,0,0,0,544.13,970.56Z"/><path d="M297.39,728.86c-15-8-33.75-12.41-52.84-12.41-1.83,0-3.65,0-5.47.13a121.25,121.25,0,0,0,7.73-9.83c9.25-13.27,10.95-23.51,5.06-30.44s-18.91-9-34.81-5.55c-16.6,3.61-33.75,12.41-48.29,24.77s-26,27.88-32.2,43.68c-6,15.13-6,28.31-.1,35.24,2.93,3.44,7,5.16,12.09,5.16s11.44-1.76,18.78-5.28c3-1.46,6.27-3.22,9.66-5.26,13.73,9.19,42.39,11.49,67.55,11.49,34.56,0,75.75-4.32,75.75-24.92C320.3,746.54,311.74,736.53,297.39,728.86Zm-122.6,34.29c-.9.55-1.79,1.09-2.66,1.6-2.62,1.53-5.12,2.88-7.47,4-8.07,3.87-18.69,7.31-23.48,1.68-4.33-5.09-3.89-16.18,1.15-29C148.19,726.6,159,712,172.78,700.24s30-20,45.59-23.43a62.1,62.1,0,0,1,13-1.52c7.29,0,12.94,1.72,15.76,5,4.78,5.63-.31,15.56-5.43,22.9a130.33,130.33,0,0,1-11.64,14.08q-1.67,1.76-3.45,3.59t-3.77,3.76c-4.92,4.8-10.46,9.83-16.55,15a276.11,276.11,0,0,1-28.87,21.81C176.55,762.05,175.67,762.61,174.79,763.15Zm69.76,11.23c-29.56,0-51-3.23-61.77-9a292.49,292.49,0,0,0,27.55-21A306.33,306.33,0,0,0,233,723.21c3.8-.38,7.65-.58,11.52-.58,18.09,0,35.82,4.15,49.92,11.69,12.12,6.47,19.65,14.64,19.65,21.32C314.12,767.37,288.11,774.38,244.55,774.38Z"/><path d="M214.58,693.87c2.87.88,4.09-3.6,1.24-4.47a23.35,23.35,0,0,0-22.88,5.31c-2.2,2,1.09,5.31,3.28,3.28A18.57,18.57,0,0,1,214.58,693.87Z"/><path d="M268.92,729.94c-3-.36-2.94,4.28,0,4.63a19,19,0,0,1,11.73,6.17c2,2.2,5.3-1.08,3.28-3.27A23.86,23.86,0,0,0,268.92,729.94Z"/><path d="M947.74,781.29l-9.6-23.89a44.35,44.35,0,0,0,2.64-23.63L944,728.2a19,19,0,0,0,0-18.91l-27-46.8A19,19,0,0,0,900.58,653H846.53a19,19,0,0,0-16.38,9.45l-5.69,9.84a8.43,8.43,0,0,0-8.84,4.67l-3.11,6.48a8.42,8.42,0,0,0-13.79,2l-8.18,17s-3.7,7.79-4.44,11.55a44.27,44.27,0,0,0,1,24.16l-11.17,23.21a2.64,2.64,0,0,0,4.65,2.5,1.43,1.43,0,0,0,.12-.21l11.64-24.17a2.7,2.7,0,0,0,.11-2,39.63,39.63,0,0,1,1.66-30.17l9.41-19.55a3.12,3.12,0,1,1,5.62,2.71l-4.28,8.88a2.65,2.65,0,0,0,1.24,3.53,3.52,3.52,0,0,0,.6.2,2.65,2.65,0,0,0,2.94-1.44l10.53-21.89.65-1.13a3.12,3.12,0,0,1,3.76-.83l.22.13a3.13,3.13,0,0,1,1.24,4l0,.08L815.24,704.4a2.65,2.65,0,0,0,4.77,2.29l13.51-28.08a3.12,3.12,0,0,1,5.62,2.71l-13.51,28.07a2.65,2.65,0,1,0,4.77,2.3l10.78-22.4A3.12,3.12,0,1,1,846.8,692l-13,27.08,0,0L829,729a2.65,2.65,0,0,0,3.77,3.4l12.33-7.6a4.15,4.15,0,0,1,5.28,6.28l-.54.6A55.88,55.88,0,0,1,822,748.59c-1,.27-2.1.5-3.16.71l-1.06.2a2.64,2.64,0,0,0-1.73,1.15,2,2,0,0,0-.2.31l-11.61,24.12a2.62,2.62,0,0,0,.18,2.59,2.55,2.55,0,0,0,1.06.94,2.64,2.64,0,0,0,3.53-1.24l10.21-21.22L830.15,775a19,19,0,0,0,16.38,9.46h54.05a18.74,18.74,0,0,0,8-1.85l5,12.39a2.65,2.65,0,0,0,3.44,1.47l.18-.1a2.63,2.63,0,0,0,1.29-3.34l-5.38-13.4-1.23-3.06-1.29-3.21-2.07-5.17a2.68,2.68,0,0,0-1.83-1.59A55.82,55.82,0,0,1,876,746.68l-.49-.64a4.14,4.14,0,0,1,5.68-5.91l11.79,8.4a2.65,2.65,0,0,0,4-3.14l-4.09-10.17,0-.05-11.2-27.88c-1.48-3.71,4.25-6.18,5.79-2.33L896.68,728a2.65,2.65,0,1,0,4.91-2L890,697.14a3.44,3.44,0,0,1,1.73-4,3.12,3.12,0,0,1,4.06,1.73l11.61,28.91a2.65,2.65,0,1,0,4.91-2L903,698.69a3.12,3.12,0,0,1,5.79-2.32l9.26,23.07a2.65,2.65,0,0,0,4.92-2l-3.68-9.14a3.14,3.14,0,0,1,.26-2.82c1.18-1.88,4.7-1.57,5.53.49l8.09,20.13a38.75,38.75,0,0,1,1.72,5.42A39.82,39.82,0,0,1,936,742.06a39.36,39.36,0,0,1-3.13,14.28,2.64,2.64,0,0,0,0,2l10,24.89a2.68,2.68,0,0,0,3.45,1.47A2.65,2.65,0,0,0,947.74,781.29Zm-28.66-81.94a8.34,8.34,0,0,0-2.67,1.72l-2.68-6.67A8.42,8.42,0,0,0,900,691.54a8.41,8.41,0,0,0-15.38,6.17,8.42,8.42,0,0,0-7.93,11.55L888.65,739l-4.44-3.16a9.44,9.44,0,0,0-12.94,13.47l.49.63a60.59,60.59,0,0,0,8.69,9.06s2.82,3.42,9.7,6.73a61.26,61.26,0,0,0,14,5.69l2.2,5.46a12.75,12.75,0,0,1-5.75,1.4H846.53a12.77,12.77,0,0,1-11-6.36l-10.73-18.58a62,62,0,0,0,9.64-3.6c7.08-2.84,10.13-6.07,10.13-6.07a60.28,60.28,0,0,0,9.26-8.46l.53-.6a9.44,9.44,0,0,0-12-14.3l-4.63,2.86,13.88-28.86a8.42,8.42,0,0,0-3.93-11.23,8.66,8.66,0,0,0-3.21-.82,8.4,8.4,0,0,0-13.56-8.64l4.63-8a12.79,12.79,0,0,1,11-6.36h54.05a12.78,12.78,0,0,1,11,6.36l27,46.8a12.75,12.75,0,0,1,0,12.73l-.15.26c-.76-2.17-1.42-3.84-1.42-3.84L930,704A8.43,8.43,0,0,0,919.08,699.35Z"/><path d="M849.89,768.61a10.26,10.26,0,0,1-9.48-8.15c-.64-2.92-5.11-1.68-4.47,1.23a14.94,14.94,0,0,0,13.95,11.56C852.88,773.38,852.87,768.74,849.89,768.61Z"/><path d="M894,663.86c-2.79-1.06-4,3.42-1.23,4.48a20.26,20.26,0,0,1,8.69,6.52c1.86,2.34,5.12-1,3.28-3.28A24.77,24.77,0,0,0,894,663.86Z"/></svg>