<svg id="Capa_1" data-name="Capa 1" xmlns="http://www.w3.org/2000/svg" viewBox="0 0 959 959"><defs><style>.cls-1{fill:#fff;}.cls-2{fill:#160600;}.cls-3{fill:#881919;}.cls-4{fill:#faaf3b;}</style></defs><title>Iogo_hazpanencasa</title><rect class="cls-1" width="959" height="959"/><path class="cls-2" d="M241.41,309.24h-8.89v69.5h8.89v25.33H174.19V378.74h8.54V353.25h-24.9v25.49h8.54v25.33H99.14V378.74H108v-69.5h-8.9V283.91h67.23v25.33h-8.54v23.47h24.9V309.24h-8.54V283.91h67.22Z"/><path class="cls-2" d="M379.06,378.74h7.11v25.33H316.46V378.74h10.67l-2.84-12.36H300.1l-2.85,12.36h10.67v25.33H247.1V378.74h7.12l30-94.83H349ZM304,350h16.36l-7.29-30.73H311.3Z"/><path class="cls-2" d="M473,366.07h35.39v38H390.8V381.83l54.77-72.59H427.08V321.9h-35.4v-38H505.5v22.24l-54.59,72.59h22Z"/><path class="cls-2" d="M99.14,539.24h9.65v-86.8H99.14V420.81h84.68q24.88,0,38,10.7t13.12,34.63q0,23.92-13.12,34.62t-38,10.71h-21v27.77h18.52v31.64H99.14Zm70.22-55.16q11.17,0,11.18-12.35v-6.94c0-4.25-.93-7.36-2.79-9.36s-4.67-3-8.39-3H162.8v31.64Z"/><path class="cls-2" d="M363.79,539.24h7.71v31.64H295.89V539.24h11.57l-3.08-15.43H278.14l-3.08,15.43h11.57v31.64h-66V539.24h7.72L261,420.81h70.21Zm-81.4-35.87h17.74L292.23,465H290.3Z"/><path class="cls-2" d="M488.78,420.81h63.27v31.63H542.4V570.88H488.2l-56.51-87v55.36h9.25v31.64H377.68V539.24h9.64v-86.8h-9.64V420.81h69.63L498,498.16V452.44h-9.26Z"/><path class="cls-2" d="M99.14,707.77V682.45h7.74V613H99.14V587.62h104.4v46.64H168.9V613H150.18v24.4h13.61V655H150.18v27.49H168.9v-24.4h34.64v49.72Z"/><path class="cls-2" d="M298.5,587.62h50.73V613H341.5v94.82H298l-45.32-69.65v44.33h7.43v25.32H209.42V682.45h7.73V613h-7.73V587.62h55.83l40.68,61.93V613H298.5Z"/><path class="cls-2" d="M397.41,695.11q-15.87-14.82-15.86-47.41,0-62.24,60.63-62.24a100.32,100.32,0,0,1,27.3,3.55q12.6,3.56,18.79,7.88V635.5H451.15V624.38c0-3.91-.88-6.8-2.63-8.65s-4.38-2.78-7.89-2.78-6.13.93-7.89,2.78-2.62,4.74-2.62,8.65V671q0,5.87,2.62,8.65t7.89,2.78q5.26,0,7.89-2.78t2.63-8.65V658.51h37.12v40q-6.34,4.32-18.79,7.88a98.37,98.37,0,0,1-27,3.55Q413.26,709.94,397.41,695.11Z"/><path class="cls-2" d="M607.67,682.45h6.18v25.32H553.22V682.45h9.28L560,670.09H539l-2.48,12.36h9.28v25.32H492.91V682.45h6.18l26.14-94.83h56.3ZM542.4,653.72h14.23L550.29,623h-1.55Z"/><path class="cls-2" d="M638.68,707.39q-13.23-2.55-20.34-5.79V671h34q0,4.79,2.17,7t7.89,2.16c3.19,0,5.49-.49,6.88-1.47a5,5,0,0,0,2.09-4.4,5.51,5.51,0,0,0-2-4.25,23.35,23.35,0,0,0-7-3.62l-13.3-4.64q-17.18-6.48-24.67-15.29T617,622.68q0-18.23,12-27.72t40-9.5a113.5,113.5,0,0,1,25.29,2.7q11.84,2.7,19.1,7.18V623H682.37q0-7.72-9.59-7.72-4.63,0-6.57,1.15a4.39,4.39,0,0,0-1.94,4.1,4.81,4.81,0,0,0,2.25,4.17,30.82,30.82,0,0,0,7.34,3.24l13.46,4.63q16.39,5.57,23.89,14.44t7.51,23.25q0,19.61-13.23,29.65t-38.74,10A148,148,0,0,1,638.68,707.39Z"/><path class="cls-2" d="M836.57,682.45h6.18v25.32H782.13V682.45h9.28l-2.48-12.36h-21l-2.48,12.36h9.28v25.32H721.81V682.45H728l26.13-94.83h56.3ZM771.3,653.72h14.23L779.19,623h-1.55Z"/><path class="cls-2" d="M356.13,709.94V688.61h20.32v21.33Z"/><path class="cls-3" d="M858.82,398.59,694.93,249.83a2.87,2.87,0,0,0-3.9,0L527,398.38a3.26,3.26,0,0,0-.85,3.47,3,3,0,0,0,2.8,2l44.62,0-.09,163a3.23,3.23,0,0,0,.87,2.22,3,3,0,0,0,2.11.92l232.74.15a3.06,3.06,0,0,0,3-3.14l.1-162.95,44.62,0a3,3,0,0,0,2.8-2.05A3.26,3.26,0,0,0,858.82,398.59Z"/><path class="cls-4" d="M687.79,524.09S631.51,508.25,642.91,463C642.91,463,696.91,483.1,687.79,524.09Z"/><path class="cls-4" d="M688.75,480.18s-54.64-15.38-43.57-59.27C645.18,420.91,697.6,440.38,688.75,480.18Z"/><path class="cls-4" d="M689.73,437.32s-50.37-14.17-40.16-54.63C649.57,382.69,697.88,400.64,689.73,437.32Z"/><path class="cls-4" d="M695.9,524.26s56.91-13.44,47.43-59.09C743.33,465.17,688.53,482.92,695.9,524.26Z"/><path class="cls-4" d="M696.8,480.35S752.05,467.3,742.85,423C742.85,423,689.65,440.21,696.8,480.35Z"/><path class="cls-4" d="M697.65,437.49s50.92-12,42.44-52.88C740.09,384.61,691.06,400.5,697.65,437.49Z"/><path class="cls-4" d="M693.77,406.83s-34.73-34.48,1.45-68.16C695.22,338.67,732.46,374.61,693.77,406.83Z"/></svg>